<?xml version="1.0" encoding="utf-8"?>
<!-- Generator: Adobe Illustrator 17.0.0, SVG Export Plug-In . SVG Version: 6.00 Build 0)  -->
<!DOCTYPE svg PUBLIC "-//W3C//DTD SVG 1.1//EN" "http://www.w3.org/Graphics/SVG/1.1/DTD/svg11.dtd">
<svg version="1.1" id="Layer_1" xmlns="http://www.w3.org/2000/svg" xmlns:xlink="http://www.w3.org/1999/xlink" x="0px" y="0px"
	 width="130px" height="34.126px" viewBox="0 3.026 130 34.126" enable-background="new 0 3.026 130 34.126" xml:space="preserve">
<g>
	<g>
		<g>
			<path fill="#FFFFFF" d="M9.632,4.091c5.089,0,8.033,2.975,8.033,6.979c0,2.682-1.672,4.886-3.78,5.583
				c2.326,0.551,4.58,2.718,4.58,6.098c0,4.261-3.198,7.383-8.069,7.383H0V4.091H9.632z M8.723,14.523
				c1.999,0,3.308-1.065,3.308-2.828c0-1.69-1.127-2.792-3.38-2.792H5.597v5.62H8.723z M9.196,25.397
				c2.217,0,3.562-1.175,3.562-3.049c0-1.8-1.309-3.049-3.562-3.049H5.597v6.098H9.196z"/>
			<path fill="#FFFFFF" d="M31.381,28.297c-0.945,1.58-3.017,2.241-4.834,2.241c-4.398,0-6.869-3.233-6.869-7.126V11.877h5.525
				v10.359c0,1.763,0.945,3.159,2.908,3.159c1.854,0,3.017-1.286,3.017-3.122V11.877h5.525v14.987c0,1.653,0.145,2.975,0.182,3.269
				h-5.307C31.454,29.803,31.381,28.774,31.381,28.297z"/>
			<path fill="#FFFFFF" d="M40.866,37.151l4.107-9.477l-7.596-15.795h6.179l4.398,9.771l3.998-9.771h5.852L46.682,37.151H40.866z"/>
			<path fill="#FFFFFF" d="M75.08,30.135L64.467,13.017v17.118h-5.707V4.091h6.979l9.668,15.832V4.091h5.743v26.044H75.08z"/>
			<path fill="#FFFFFF" d="M101.886,20.989c0,5.657-4.18,9.698-9.596,9.698c-5.379,0-9.596-4.041-9.596-9.698
				s4.216-9.661,9.596-9.661C97.706,11.328,101.886,15.332,101.886,20.989z M96.362,20.989c0-3.086-1.963-4.518-4.071-4.518
				c-2.072,0-4.071,1.433-4.071,4.518c0,3.049,1.999,4.555,4.071,4.555C94.399,25.544,96.362,24.074,96.362,20.989z"/>
			<path fill="#FFFFFF" d="M106.109,3.026c1.817,0,3.271,1.469,3.271,3.269c0,1.8-1.454,3.269-3.271,3.269
				c-1.745,0-3.199-1.469-3.199-3.269C102.91,4.495,104.364,3.026,106.109,3.026z M103.383,30.135V11.879h5.525v18.257H103.383z"/>
			<path fill="#FFFFFF" d="M123.023,17.389c-0.618-0.147-1.2-0.184-1.745-0.184c-2.217,0-4.216,1.322-4.216,4.959v7.971h-5.525
				V11.879h5.343v2.461c0.945-2.057,3.235-2.645,4.689-2.645c0.545,0,1.09,0.073,1.454,0.184V17.389z"/>
		</g>
	</g>
	<g>
		<path fill="#FFFFFF" d="M126.992,24.155c1.65,0,3.008,1.357,3.008,3.008c0,1.652-1.357,2.972-3.008,2.972
			c-1.65,0-2.972-1.32-2.972-2.972C124.02,25.512,125.341,24.155,126.992,24.155z"/>
	</g>
</g>
</svg>
